<?xml version="1.0" encoding="UTF-8" standalone="no"?>
<!-- Created with Inkscape (http://www.inkscape.org/) -->

<svg
   width="183.48982mm"
   height="79.618179mm"
   viewBox="0 0 183.48982 79.618179"
   version="1.1"
   id="svg1"
   xml:space="preserve"
   inkscape:export-filename="bitmap.svg"
   inkscape:export-xdpi="96"
   inkscape:export-ydpi="96"
   xmlns:inkscape="http://www.inkscape.org/namespaces/inkscape"
   xmlns:sodipodi="http://sodipodi.sourceforge.net/DTD/sodipodi-0.dtd"
   xmlns="http://www.w3.org/2000/svg"
   xmlns:svg="http://www.w3.org/2000/svg"><sodipodi:namedview
     id="namedview1"
     pagecolor="#ffffff"
     bordercolor="#000000"
     borderopacity="0.25"
     inkscape:showpageshadow="2"
     inkscape:pageopacity="0.0"
     inkscape:pagecheckerboard="0"
     inkscape:deskcolor="#d1d1d1"
     inkscape:document-units="mm"><inkscape:page
       x="0"
       y="0"
       width="183.48982"
       height="79.618179"
       id="page2"
       margin="0"
       bleed="0" /></sodipodi:namedview><defs
     id="defs1" /><g
     inkscape:groupmode="layer"
     id="layer2"
     inkscape:label="Capa 2"
     transform="translate(-14.249385,-6.0816821)"><path
       style="fill:none;stroke:#000000;stroke-width:2.5;stroke-linecap:round;stroke-linejoin:round;stroke-dasharray:none;stroke-opacity:1"
       d="m 29.126796,36.425152 5.832024,3.93245 11.39744,7.56497 13.330344,8.69805 9.897776,7.03175 4.798923,3.56587 2.899349,2.46611 3.899125,3.5992 3.299261,3.13263 2.899349,3.26593 0.499888,0.49989 -2.532766,-5.39879 -1.732944,-4.79893 -1.9329,-6.93177 -1.066427,-8.26481 -0.567468,-4.94193 -0.377039,-6.97523 v -7.16373 l 0.754078,-8.57764 1.319636,-6.31541 0.628732,-1.99299 0.924793,-1.66629 c 0,0 2.182841,-2.65774 3.482551,0.50822 1.299708,3.16595 -1.632968,8.364785 -1.632968,8.364785 0,0 -5.265484,7.631625 -6.598518,8.464765 -1.333034,0.83315 -6.931776,7.03176 -6.931776,7.03176 0,0 -1.899574,2.33281 -2.73272,4.63229 -0.833147,2.29948 -1.199732,3.9991 0.466561,6.53187 1.666293,2.53276 8.26481,2.29948 8.26481,2.29948 l 15.629822,0.86647 5.06553,-0.23328 -58.30436,15.650888 c 0,0 -5.155096,1.51223 -5.372807,1.60241 -0.421799,0.174716 -8.777592,3.638066 -8.777592,3.638066 l -5.808815,2.860137 c 0,0 -3.106817,1.856201 -3.955156,3.040169 -0.801717,1.1189 -1.131117,2.40362 1.366768,1.93232 2.497883,-0.4713 7.238478,-3.080593 7.238478,-3.080593 l 7.656931,-4.332601 10.036294,-6.537246 12.489415,-8.90755 6.032625,-4.10029 8.530505,-4.43021 10.368573,-5.0429 33.095869,-12.58804 34.65888,-12.13061 34.25898,-11.46409 14.66338,-4.3990198"
       id="path2"
       sodipodi:nodetypes="ccccccccccccccccccccccscscssccccsccssccccccccccc" /></g></svg>
